<?xml version="1.0" standalone="no"?>
<!DOCTYPE svg PUBLIC "-//W3C//DTD SVG 20010904//EN"
 "http://www.w3.org/TR/2001/REC-SVG-20010904/DTD/svg10.dtd">
<svg version="1.0" xmlns="http://www.w3.org/2000/svg"
 width="420.000000pt" height="594.000000pt" viewBox="0 0 420.000000 594.000000"
 preserveAspectRatio="xMidYMid meet">

<g transform="translate(0.000000,594.000000) scale(0.100000,-0.100000)"
fill="#000000" stroke="none">
<path d="M2635 5042 c-104 -54 -202 -106 -217 -116 l-27 -18 170 -181 c93
-100 173 -181 177 -180 4 1 10 19 13 40 4 21 12 71 19 111 12 73 12 74 39 67
54 -13 193 -85 283 -146 141 -96 355 -315 438 -449 103 -169 172 -343 210
-536 26 -131 36 -363 21 -478 -7 -48 -10 -90 -8 -92 7 -7 48 178 63 286 20
139 19 370 -1 485 -47 267 -174 495 -391 705 -157 152 -349 277 -546 355 -38
15 -68 30 -68 34 0 3 7 47 15 96 17 103 18 115 8 115 -5 0 -93 -44 -198 -98z"/>
<path d="M1595 4766 c-319 -116 -553 -253 -706 -412 -174 -182 -296 -454 -339
-754 -16 -109 -13 -339 4 -457 24 -159 31 -144 -84 -194 -55 -24 -100 -46
-100 -49 0 -7 425 -260 436 -260 10 0 136 481 129 489 -3 2 -47 -12 -98 -32
-51 -20 -100 -37 -109 -37 -13 0 -18 16 -25 78 -14 136 -9 408 10 502 62 301
222 589 444 800 144 138 231 197 447 309 55 28 96 51 90 51 -5 -1 -49 -16 -99
-34z"/>
<path d="M3741 3034 c0 -11 3 -14 6 -6 3 7 2 16 -1 19 -3 4 -6 -2 -5 -13z"/>
<path d="M3515 2474 c-195 -58 -438 -134 -442 -138 -3 -3 36 -35 86 -71 50
-37 91 -71 91 -75 0 -30 -215 -179 -375 -259 -338 -169 -768 -194 -1151 -66
-114 38 -268 113 -374 184 -100 65 -95 50 10 -34 207 -165 444 -290 665 -352
123 -34 347 -43 485 -19 288 50 604 212 837 429 l32 30 53 -35 c29 -20 72 -50
96 -68 l42 -32 -1 124 c-1 67 -4 184 -8 258 l-6 136 -40 -12z"/>
<path d="M540 1890 c8 -5 25 -10 38 -10 13 0 34 -11 47 -25 l25 -24 0 -458 c0
-446 -5 -522 -32 -539 -6 -4 -25 -10 -42 -14 -17 -3 60 -10 174 -16 370 -17
459 -7 595 64 124 65 216 184 261 337 26 89 24 250 -5 334 -60 173 -178 278
-375 334 -63 17 -107 20 -386 23 -201 2 -310 0 -300 -6z m555 -51 c84 -15 193
-75 260 -143 100 -102 145 -217 145 -373 0 -245 -91 -390 -288 -457 -37 -13
-96 -26 -132 -30 -120 -12 -276 21 -297 63 -13 27 -16 921 -3 936 6 8 24 16
38 18 36 6 215 -3 277 -14z"/>
<path d="M1812 1484 c-6 -11 -33 -78 -60 -150 -101 -264 -110 -283 -145 -293
-27 -8 -20 -9 42 -10 66 -1 73 1 56 13 -18 13 -18 15 6 82 l26 69 76 3 77 3
26 -58 c14 -32 27 -70 28 -85 1 -28 1 -28 71 -27 61 1 66 2 38 10 -39 11 -40
12 -138 254 -42 105 -81 194 -85 199 -5 4 -13 0 -18 -10z m37 -170 c17 -47 31
-87 31 -90 0 -2 -29 -4 -65 -4 -36 0 -65 3 -65 6 0 4 11 39 25 78 14 39 28 77
30 84 2 6 6 12 9 12 2 0 18 -38 35 -86z"/>
<path d="M2148 1494 c-5 -4 -8 -106 -8 -226 0 -217 0 -219 -22 -228 -17 -6 -3
-9 52 -9 60 1 70 3 49 10 -35 13 -39 37 -39 212 l0 141 178 -182 c97 -101 183
-182 190 -182 9 0 12 51 12 220 0 219 0 221 23 230 16 6 1 9 -53 8 -41 0 -65
-3 -53 -5 12 -2 26 -10 31 -16 6 -7 12 -88 14 -181 l3 -168 -185 192 c-102
105 -188 188 -192 184z"/>
<path d="M3112 1482 c-99 -36 -152 -113 -152 -221 0 -69 16 -108 64 -159 41
-44 69 -58 146 -72 63 -11 164 -6 189 10 7 4 15 29 17 56 4 42 3 45 -6 24 -19
-43 -40 -58 -89 -65 -100 -14 -195 35 -237 121 -23 46 -26 64 -22 124 6 114
56 162 173 168 102 6 142 -9 166 -62 l19 -41 0 56 c0 67 0 67 -130 75 -68 4
-96 1 -138 -14z"/>
<path d="M2728 1480 c22 -9 22 -11 22 -212 0 -112 -4 -208 -8 -214 -4 -6 -14
-14 -22 -17 -8 -3 23 -5 70 -5 47 0 76 3 65 5 -44 11 -45 16 -45 230 0 202 0
204 23 213 16 6 2 9 -53 9 -55 0 -69 -3 -52 -9z"/>
<path d="M3500 1481 l25 -7 3 -212 2 -212 -22 -10 c-16 -6 21 -8 111 -7 l135
2 8 34 c11 40 2 54 -11 18 -7 -19 -20 -28 -46 -33 -46 -8 -102 3 -109 22 -3 9
-6 54 -6 100 l0 84 61 0 c53 0 62 -3 66 -21 7 -27 23 -6 23 31 0 25 -1 25 -75
22 l-75 -4 0 86 0 86 66 0 c58 0 66 -2 71 -21 4 -16 8 -17 14 -7 5 7 9 23 9
36 0 22 -1 22 -137 21 -76 -1 -127 -4 -113 -8z"/>
<path d="M1600 968 c0 -2 11 -37 24 -78 25 -79 30 -79 50 0 5 20 3 19 -8 -5
-16 -33 -17 -31 -36 43 -6 23 -15 42 -20 42 -6 0 -10 -1 -10 -2z"/>
<path d="M1690 961 c0 -5 -3 -18 -6 -28 -4 -13 -3 -15 4 -4 7 10 14 0 27 -40
10 -30 20 -58 23 -63 6 -10 20 20 21 44 1 12 -1 13 -8 1 -6 -9 -14 1 -26 38
-15 46 -35 76 -35 52z"/>
<path d="M1771 939 c-6 -18 -11 -37 -10 -43 0 -6 7 7 15 28 8 22 12 41 10 43
-2 2 -9 -10 -15 -28z"/>
<path d="M2357 950 c-14 -61 -17 -130 -7 -130 6 0 10 25 11 58 l0 57 27 -52
c14 -29 29 -53 32 -53 3 0 18 24 32 53 l27 52 0 -42 c1 -45 9 -73 20 -73 6 0
-4 115 -13 145 -1 5 -15 -19 -31 -54 l-29 -63 -32 63 c-29 57 -33 61 -37 39z"/>
<path d="M1848 939 c-3 -8 -15 -38 -27 -66 -11 -29 -17 -53 -12 -53 5 0 12 11
15 25 5 18 13 25 30 25 17 0 26 -7 30 -25 4 -14 11 -25 16 -25 9 0 -18 81 -39
118 -7 12 -9 12 -13 1z m10 -58 c-15 -5 -21 7 -13 26 7 17 8 17 15 -2 4 -11 3
-22 -2 -24z"/>
<path d="M1936 935 c-3 -9 7 -30 25 -50 33 -38 30 -59 -7 -52 -13 2 -24 0 -24
-5 0 -5 15 -8 33 -6 26 2 33 8 35 30 2 20 -4 31 -23 44 -18 11 -25 23 -22 36
6 22 -8 24 -17 3z"/>
<path d="M2048 943 c20 -4 22 -10 22 -64 0 -40 4 -59 13 -59 8 0 11 17 9 59
-4 59 -3 60 25 64 15 2 1 4 -32 4 -33 0 -50 -2 -37 -4z"/>
<path d="M2170 885 l0 -65 38 1 c30 2 32 3 10 6 -27 4 -28 7 -28 58 0 48 3 54
23 58 16 3 13 5 -10 6 l-33 1 0 -65z"/>
<path d="M2585 935 c-5 -11 -16 -41 -26 -67 -10 -27 -15 -48 -10 -48 5 0 11
10 13 23 5 33 45 35 60 3 6 -14 15 -26 20 -26 12 0 9 9 -22 75 -23 50 -29 57
-35 40z m13 -54 c-15 -5 -21 7 -13 26 7 17 8 17 15 -2 4 -11 3 -22 -2 -24z"/>
<path d="M2680 885 c0 -36 4 -65 10 -65 5 0 7 22 3 53 l-5 52 56 -55 56 -54 0
67 c0 37 -3 67 -7 67 -5 0 -7 -24 -5 -52 l3 -53 -50 53 c-27 28 -52 52 -55 52
-3 0 -6 -29 -6 -65z"/>
<path d="M2878 940 c-3 -8 -15 -39 -27 -67 -11 -29 -17 -53 -12 -53 5 0 12 11
15 25 5 18 13 25 30 25 17 0 26 -7 30 -25 4 -14 11 -25 16 -25 14 0 12 7 -19
75 -17 37 -29 54 -33 45z m10 -59 c-15 -5 -21 7 -13 26 7 17 8 17 15 -2 4 -11
3 -22 -2 -24z"/>
<path d="M2977 932 c-42 -47 -4 -115 61 -110 34 3 37 6 40 36 2 18 -1 32 -7
32 -6 0 -11 -13 -11 -30 0 -25 -4 -30 -24 -30 -14 0 -32 7 -40 16 -22 21 -21
80 2 93 9 6 12 11 6 11 -6 0 -18 -8 -27 -18z"/>
<path d="M3050 946 c0 -2 7 -6 15 -10 8 -3 15 -1 15 4 0 6 -7 10 -15 10 -8 0
-15 -2 -15 -4z"/>
<path d="M3130 885 l0 -65 33 1 c23 1 26 3 10 6 -20 4 -23 10 -23 58 0 48 3
54 23 58 16 3 13 5 -10 6 l-33 1 0 -65z"/>
<path d="M3240 923 c0 -16 -3 -45 -6 -65 -4 -25 -3 -38 4 -38 6 0 9 6 7 13 -2
6 -1 28 3 47 l8 35 17 -42 c9 -24 21 -43 25 -43 5 0 17 19 28 42 l19 42 7 -44
c7 -41 14 -58 21 -49 2 2 -1 33 -6 69 l-9 65 -28 -55 -27 -54 -27 52 c-14 29
-29 52 -31 52 -3 0 -5 -12 -5 -27z"/>
<path d="M3420 885 l0 -65 38 1 c30 2 32 3 10 6 -27 4 -28 7 -28 58 0 48 3 54
23 58 16 3 13 5 -10 6 l-33 1 0 -65z"/>
<path d="M3530 887 c0 -37 3 -67 8 -67 4 0 5 24 4 52 l-4 53 56 -55 56 -54 0
67 c0 39 -4 67 -10 67 -7 0 -8 -19 -4 -52 l6 -53 -56 55 -56 54 0 -67z"/>
<path d="M3698 943 c20 -4 22 -10 22 -64 0 -33 4 -59 10 -59 6 0 10 26 10 59
0 57 1 60 28 64 15 2 0 4 -33 4 -33 0 -50 -2 -37 -4z"/>
</g>
</svg>
